<svg xmlns="http://www.w3.org/2000/svg" width="128" height="128" viewBox="0 0 128 128">
  <defs>
    <radialGradient id="nebula-cyan" cx="35%" cy="35%" r="65%">
      <stop offset="0" stop-color="#0ea5e9" stop-opacity="0.6" />
      <stop offset="0.5" stop-color="#38bdf8" stop-opacity="0.25" />
      <stop offset="1" stop-color="#020617" stop-opacity="0" />
    </radialGradient>
    <radialGradient id="nebula-teal" cx="70%" cy="55%" r="55%">
      <stop offset="0" stop-color="#14b8a6" stop-opacity="0.5" />
      <stop offset="0.6" stop-color="#5eead4" stop-opacity="0.2" />
      <stop offset="1" stop-color="#020617" stop-opacity="0" />
    </radialGradient>
  </defs>
  <rect width="128" height="128" fill="#020617" />
  <circle cx="42" cy="40" r="54" fill="url(#nebula-cyan)" />
  <circle cx="92" cy="78" r="48" fill="url(#nebula-teal)" />
  <g fill="#bae6fd" opacity="0.8">
    <circle cx="18" cy="24" r="1.5" />
    <circle cx="30" cy="90" r="1.2" />
    <circle cx="58" cy="22" r="1.3" />
    <circle cx="74" cy="12" r="1.1" />
    <circle cx="102" cy="28" r="1.4" />
    <circle cx="116" cy="54" r="1" />
    <circle cx="90" cy="110" r="1.2" />
    <circle cx="64" cy="98" r="1.4" />
    <circle cx="44" cy="76" r="1.1" />
    <circle cx="18" cy="60" r="1" />
  </g>
  <g fill="#38bdf8" opacity="0.45">
    <circle cx="12" cy="110" r="1.8" />
    <circle cx="56" cy="64" r="2" />
    <circle cx="84" cy="46" r="1.6" />
    <circle cx="108" cy="88" r="1.9" />
  </g>
  <g fill="#f8fafc" opacity="0.9">
    <circle cx="24" cy="44" r="0.8" />
    <circle cx="76" cy="84" r="0.7" />
    <circle cx="40" cy="108" r="0.6" />
    <circle cx="104" cy="64" r="0.7" />
  </g>
</svg>
