<svg xmlns="http://www.w3.org/2000/svg" width="64" height="96" viewBox="0 0 64 96">
  <defs>
    <linearGradient id="suit-body" x1="0%" y1="0%" x2="0%" y2="100%">
      <stop offset="0" stop-color="#34d399" />
      <stop offset="0.6" stop-color="#10b981" />
      <stop offset="1" stop-color="#0f766e" />
    </linearGradient>
    <linearGradient id="suit-visor" x1="0%" y1="0%" x2="0%" y2="100%">
      <stop offset="0" stop-color="#e2e8f0" stop-opacity="0.95" />
      <stop offset="1" stop-color="#94a3b8" stop-opacity="0.4" />
    </linearGradient>
    <linearGradient id="suit-pack" x1="0%" y1="0%" x2="0%" y2="100%">
      <stop offset="0" stop-color="#0ea5e9" stop-opacity="0.9" />
      <stop offset="1" stop-color="#2563eb" stop-opacity="0.9" />
    </linearGradient>
  </defs>
  <rect width="64" height="96" fill="none" />
  <g transform="translate(12 8)">
    <rect x="10" y="0" width="20" height="18" rx="9" fill="#14b8a6" />
    <rect x="6" y="16" width="28" height="56" rx="14" fill="url(#suit-body)" />
    <rect x="2" y="24" width="8" height="28" rx="4" fill="#0f766e" opacity="0.8" />
    <rect x="30" y="24" width="8" height="28" rx="4" fill="#0f766e" opacity="0.8" />
    <rect x="9" y="20" width="22" height="14" rx="7" fill="url(#suit-visor)" />
    <rect x="14" y="50" width="12" height="18" rx="6" fill="#064e3b" opacity="0.6" />
    <rect x="2" y="32" width="6" height="18" rx="3" fill="url(#suit-pack)" />
    <rect x="34" y="32" width="6" height="18" rx="3" fill="url(#suit-pack)" />
    <rect x="12" y="72" width="8" height="14" rx="4" fill="#0f172a" />
    <rect x="22" y="72" width="8" height="14" rx="4" fill="#0f172a" />
    <circle cx="20" cy="30" r="2" fill="#5eead4" opacity="0.7" />
    <circle cx="24" cy="30" r="1.6" fill="#bae6fd" opacity="0.6" />
  </g>
</svg>
